<?xml version="1.0" encoding="UTF-8" standalone="no"?><!DOCTYPE svg PUBLIC "-//W3C//DTD SVG 1.1//EN" "http://www.w3.org/Graphics/SVG/1.1/DTD/svg11.dtd"><svg width="100%" height="100%" viewBox="0 0 1117 240" version="1.1" xmlns="http://www.w3.org/2000/svg" xmlns:xlink="http://www.w3.org/1999/xlink" xml:space="preserve" style="fill-rule:evenodd;clip-rule:evenodd;stroke-linecap:round;stroke-linejoin:round;stroke-miterlimit:1.5;"><rect id="Tavola-da-disegno1" x="0" y="0" width="1117" height="240" style="fill:none;"/><path d="M885.968,225.768c12.871,-11.51 39.282,-37.834 40.235,-38.414c1.232,-0.735 2.707,1.744 2.707,1.744c0,0 2.473,1.469 1.738,2.701c-0.58,0.954 -26.903,27.363 -38.413,40.234c-2.499,-0.23 -4.171,-0.689 -4.874,-1.392c-0.703,-0.703 -1.163,-2.376 -1.393,-4.873Zm0.586,-17.557c13.034,-12.99 29.807,-30.278 31.008,-29.974c1.977,0.486 4.942,3.451 3.219,5.174c-1.256,1.256 -23.497,25.06 -34.985,38.539c-0.032,-3.659 0.228,-8.31 0.758,-13.739Zm9.504,23.994c13.48,-11.488 37.277,-33.728 38.533,-34.984c1.723,-1.723 4.683,1.237 5.174,3.219c0.304,1.201 -16.983,17.973 -29.973,31.006c-5.427,0.531 -10.076,0.791 -13.734,0.759Zm194.944,-189.211c30.704,38.648 28.19,95.101 -7.542,130.833c-28.729,28.729 -119.331,50.982 -166.802,56.855c14.257,-12.156 31.324,-27.538 35.686,-32.462c7.654,-8.636 6.914,-13.815 6.66,-19.492c-0.249,-5.671 -0.872,-8.282 1.596,-11.733c2.399,-3.356 120.157,-114.122 130.402,-124.001Zm-15.994,-15.994c-9.879,10.245 -120.64,128.009 -124.001,130.402c-3.456,2.463 -6.062,1.845 -11.738,1.591c-5.666,-0.243 -10.851,-0.988 -19.487,6.665c-4.927,4.359 -20.308,21.425 -32.462,35.684c5.872,-47.472 28.126,-138.072 56.854,-166.8c35.733,-35.733 92.186,-38.247 130.834,-7.542Z" style="fill:#f89a00;stroke:#6b00aa;stroke-width:1.39px;"/><g transform="matrix(0.851237,0,0,0.851237,31.6272,-132.897)"><path d="M71.982,410.073l-78.6,0l0,-31.625l75.8,0l0,-24.575l-75.8,0l0,-32.425l78.6,0l0,-25.575l-104.775,0c0,46.721 0,93.583 0,140.175l104.775,0l0,-25.975Z" style="fill:#6b00aa;fill-rule:nonzero;"/><path d="M167.813,436.051l20.284,0l-44.229,-98.723l-20.284,0l-44.229,98.723l20.143,0l8.451,-18.593l51.554,0l8.31,18.593Zm-15.776,-35.901l-36.622,0l18.311,-42.069l18.311,42.069Z" style="fill:#6b00aa;fill-rule:nonzero;"/><path d="M220.503,436.051l18.575,0l0,-81.838l31.271,0l0,-16.885c-28.594,0 -52.663,0 -81.116,0l0,16.885l31.27,0l0,81.838Z" style="fill:#6b00aa;fill-rule:nonzero;"/><rect x="324.137" y="296.273" width="22.175" height="53.575" style="fill:#6b00aa;fill-rule:nonzero;"/><path d="M429.629,398.536l-48.328,-61.208l-15.058,0l0,98.723l18.576,0l0,-66.567l51.846,66.567l11.54,0l0,-98.723l-18.576,0l0,61.208Z" style="fill:#6b00aa;fill-rule:nonzero;"/><rect x="467.368" y="296.273" width="22.175" height="53.575" style="fill:#6b00aa;fill-rule:nonzero;"/><path d="M604.553,295.873c-17.206,0 -37.802,0 -54.985,0l0,140.175c17.183,0 37.779,0 54.985,0c49.01,0 70.59,-35.802 69.99,-71.291c-0.6,-34.687 -21.979,-68.884 -69.99,-68.884Zm-28.81,24.975l28.81,0c30.41,0 43.215,21.854 43.815,43.709c0.599,22.857 -12.004,46.116 -43.815,46.116l-28.81,0l0,-89.825Z" style="fill:#6b00aa;fill-rule:nonzero;"/><path d="M776.521,434.784l-29.847,-33.663c18.725,-3.799 24.917,-17.464 24.917,-31.055c0,-17.119 -12.243,-32.597 -35.485,-32.738c-15.641,0.141 -31.279,0 -46.899,0l0,98.723l18.575,0l0,-32.96l17.896,0l28.744,32.96l22.099,0l0,-1.267Zm-40.415,-80.148c11.696,0 16.909,7.928 16.909,15.855c0,7.928 -5.072,15.855 -16.909,15.855l-28.324,0l0,-31.71l28.324,0Z" style="fill:#6b00aa;fill-rule:nonzero;"/><rect x="784.285" y="337.328" width="18.435" height="98.723" style="fill:#6b00aa;fill-rule:nonzero;"/><path d="M884.998,398.536l-48.328,-61.208l-15.057,0l0,98.723l18.575,0l0,-66.567l51.846,66.567l11.54,0l0,-98.723l-18.576,0l0,61.208Z" style="fill:#6b00aa;fill-rule:nonzero;"/><path d="M999.779,337.328l-23.1,0l-37.468,41.746l0,-41.746l-18.576,0l0,98.723l18.576,0l0,-43.72l41.271,43.72l22.96,0l0,-1.128l-47.469,-49.785l43.806,-47.246l0,-0.564Z" style="fill:#6b00aa;fill-rule:nonzero;"/></g></svg>